#!OML:ASF H:\Terrain\Patient Classification 1\Animal2\Wednesday\Animal2.ASF
:FULLY-SPECIFIED
:DEGREES
506
root 11.7873 17.8032 -23.5493 -177.853 -32.2995 -179.002
lowerback 1.17092 -1.8637 2.78481
upperback -4.69694 -2.47175 3.85931
thorax -5.46927 -1.36782 2.60692
lowerneck 16.6258 16.8499 19.0833
upperneck -0.744444 25.3867 -14.6263
head 1.47337 13.2162 -7.19697
rclavicle 7.96133e-014 8.5875e-014
rhumerus -33.0772 -9.99236 -76.2164
rradius 19.703
rwrist 22.1589
rhand -24.015 7.66575
rfingers 7.12502
rthumb 2.46284 -22.2998
lclavicle 7.96133e-014 8.5875e-014
lhumerus -37.1364 -5.26998 87.8152
lradius 28.4881
lwrist 42.1322
lhand -38.4214 48.8106
lfingers 7.12502
lthumb -11.4457 78.4781
rfemur -6.8946 -11.6931 23.3145
rtibia 25.0079
rfoot -23.1138 -17.3493
rtoes 20.6473
lfemur -9.0035 5.28572 -23.1745
ltibia 23.4419
lfoot -21.4439 11.355
ltoes 17.0608
507
root 11.7856 17.8012 -23.5532 -177.823 -32.3807 -178.988
lowerback 1.01072 -1.87114 2.69087
upperback -4.61934 -2.49395 3.90764
thorax -5.28905 -1.37334 2.69977
lowerneck 16.6177 16.848 19.1638
upperneck -0.753695 25.4006 -14.6687
head 1.48943 13.2249 -7.21453
rclavicle -1.99779e-014 -4.29375e-014
rhumerus -32.8473 -9.71037 -76.4828
rradius 19.8184
rwrist 22.1962
rhand -24.3423 7.17452
rfingers 7.12502
rthumb 2.14678 -22.7944
lclavicle -1.99779e-014 -4.29375e-014
lhumerus -37.1784 -5.28771 87.8864
lradius 28.7071
lwrist 42.1859
lhand -38.1674 48.6449
lfingers 7.12502
lthumb -11.2008 78.3259
rfemur -6.91073 -11.4843 23.3296
rtibia 24.8847
rfoot -23.1943 -17.3828
rtoes 20.871
lfemur -9.09834 5.37643 -23.1506
ltibia 23.55
lfoot -21.4597 11.0628
ltoes 17.7214
508
root 11.7845 17.7858 -23.5563 -177.77 -32.4512 -178.947
lowerback 0.936537 -1.83922 2.67884
upperback -4.66132 -2.45693 3.91277
thorax -5.29094 -1.35593 2.70818
lowerneck 16.5522 16.817 19.3089
upperneck -0.534104 25.3861 -14.589
head 1.56948 13.2154 -7.18905
rclavicle 5.26779e-014 -4.77083e-015
rhumerus -32.888 -9.91412 -76.5443
rradius 19.9714
rwrist 22.9165
rhand -24.3482 6.99295
rfingers 7.12502
rthumb 2.14104 -22.976
lclavicle 5.26779e-014 -4.77083e-015
lhumerus -37.4155 -5.54024 87.9763
lradius 28.9544
lwrist 42.2171
lhand -37.8996 48.2454
lfingers 7.12502
lthumb -10.9425 77.9402
rfemur -7.03051 -10.6428 23.3621
rtibia 24.6456
rfoot -23.2108 -17.9193
rtoes 21.6663
lfemur -9.30948 5.39209 -23.1113
ltibia 23.7808
lfoot -21.4667 10.8748
ltoes 17.8169
509
root 11.7801 17.7888 -23.5557 -177.822 -32.5638 -178.685
lowerback 1.01419 -1.80262 3.00663
upperback -4.77624 -2.39568 3.89846
thorax -5.47281 -1.34397 2.51623
lowerneck 16.5329 16.7426 19.5029
upperneck -0.339238 25.3268 -14.534
head 1.63714 13.1856 -7.18644
rclavicle -6.25178e-014 5.08889e-014
rhumerus -33.0677 -10.1815 -76.5947
rradius 20.1664
rwrist 23.394
rhand -24.152 7.28825
rfingers 7.12502
rthumb 2.33052 -22.6788
lclavicle -6.25178e-014 5.08889e-014
lhumerus -37.7731 -6.06411 88.1118
lradius 29.3977
lwrist 42.4519
lhand -37.6929 47.6549
lfingers 7.12502
lthumb -10.743 77.3602
rfemur -6.81809 -11.2597 23.7031
rtibia 24.3746
rfoot -22.3993 -18.6497
rtoes 17.3066
lfemur -9.54257 5.26907 -22.8738
ltibia 24.0417
lfoot -21.695 10.4821
ltoes 19.4341
510
root 11.7774 17.7867 -23.5565 -177.92 -32.6497 -178.496
lowerback 1.13324 -1.74372 3.23224
upperback -4.81133 -2.30243 3.87928
thorax -5.59018 -1.30927 2.3723
lowerneck 16.5112 16.6324 19.6665
upperneck -0.216444 25.2108 -14.5578
head 1.68072 13.1295 -7.21274
rclavicle 9.8796e-014 9.54166e-014
rhumerus -33.1479 -10.329 -76.5856
rradius 20.3028
rwrist 23.7991
rhand -23.5932 7.64096
rfingers 7.12502
rthumb 2.87024 -22.3195
lclavicle 9.8796e-014 9.54166e-014
lhumerus -38.0257 -6.75595 88.3725
lradius 29.9723
lwrist 42.8771
lhand -37.6644 47.6114
lfingers 7.12502
lthumb -10.7156 77.3181
rfemur -6.70827 -11.1511 23.8673
rtibia 24.2283
rfoot -22.7205 -18.4894
rtoes 19.1942
lfemur -9.63658 5.32533 -22.6926
ltibia 24.1997
lfoot -21.7897 10.2196
ltoes 19.9968
511
root 11.7751 17.7766 -23.5608 -177.807 -32.7079 -178.653
lowerback 1.10914 -1.72787 3.10026
upperback -4.78206 -2.28553 3.8574
thorax -5.54094 -1.29344 2.41939
lowerneck 16.5395 16.6356 19.5104
upperneck -0.262655 25.1871 -14.5088
head 1.63344 13.1159 -7.19216
rclavicle 1.88845e-014 6.52014e-014
rhumerus -33.0023 -10.4316 -76.6088
rradius 20.2414
rwrist 24.2446
rhand -23.2931 7.76788
rfingers 7.12502
rthumb 3.16006 -22.1884
lclavicle 1.88845e-014 6.52014e-014
lhumerus -38.0331 -7.04516 88.5467
lradius 30.2915
lwrist 43.1242
lhand -37.7405 48.2214
lfingers 7.12502
lthumb -10.789 77.9243
rfemur -6.87868 -10.5844 23.6783
rtibia 24.1967
rfoot -22.8678 -18.6395
rtoes 20.9497
lfemur -9.7036 5.56551 -22.8406
ltibia 24.255
lfoot -21.5576 10.3939
ltoes 17.8625
512
root 11.769 17.7855 -23.5668 -177.696 -32.7541 -178.798
lowerback 1.04618 -1.73042 2.98043
upperback -4.7323 -2.29568 3.8683
thorax -5.44673 -1.29137 2.49299
lowerneck 16.5793 16.7092 19.2592
upperneck -0.409467 25.2384 -14.4762
head 1.55745 13.1395 -7.16545
rclavicle 6.10269e-014 7.95139e-015
rhumerus -32.7581 -10.6212 -76.6041
rradius 20.106
rwrist 24.7037
rhand -23.1317 7.94972
rfingers 7.12502
rthumb 3.31587 -22.0042
lclavicle 6.10269e-014 7.95139e-015
lhumerus -37.8829 -7.06606 88.6565
lradius 30.3882
lwrist 43.2296
lhand -37.8582 48.6092
lfingers 7.12502
lthumb -10.9025 78.3062
rfemur -6.73577 -11.4046 23.6163
rtibia 24.0843
rfoot -21.9412 -19.1527
rtoes 15.8438
lfemur -9.74533 5.53344 -22.9886
ltibia 24.335
lfoot -21.5038 10.584
ltoes 16.624
513
root 11.762 17.7898 -23.571 -177.897 -32.7621 -178.468
lowerback 1.0679 -1.70631 3.30902
upperback -4.69515 -2.25396 3.94157
thorax -5.43168 -1.28571 2.38369
lowerneck 16.6525 16.719 19.1516
upperneck -0.532554 25.2361 -14.5245
head 1.50289 13.1408 -7.18312
rclavicle 8.13029e-014 1.27222e-014
rhumerus -32.6367 -10.3818 -76.7661
rradius 20.1064
rwrist 24.7265
rhand -22.928 8.01144
rfingers 7.12502
rthumb 3.51267 -21.9394
lclavicle 8.13029e-014 1.27222e-014
lhumerus -37.8086 -7.16767 88.7481
lradius 30.5158
lwrist 43.3272
lhand -37.8545 48.4064
lfingers 7.12502
lthumb -10.8989 78.1035
rfemur -6.46824 -11.573 23.9019
rtibia 23.849
rfoot -22.0291 -18.8689
rtoes 15.5801
lfemur -9.75681 5.46237 -22.6916
ltibia 24.4838
lfoot -21.6632 10.5298
ltoes 16.9081
514
root 11.7524 17.7911 -23.5725 -178.178 -32.7263 -178.029
lowerback 1.11607 -1.68939 3.80256
upperback -4.65622 -2.21572 4.00278
thorax -5.43699 -1.28972 2.17162
lowerneck 16.5801 16.7588 19.0143
upperneck -0.509789 25.253 -14.4225
head 1.49302 13.1432 -7.13096
rclavicle 2.23633e-014 2.8625e-014
rhumerus -32.5481 -9.98686 -77.0634
rradius 20.1003
rwrist 24.7302
rhand -22.9954 7.88658
rfingers 7.12502
rthumb 3.44759 -22.0653
lclavicle 2.23633e-014 2.8625e-014
lhumerus -37.7946 -7.25706 88.752
lradius 30.6566
lwrist 43.4647
lhand -37.7233 48.08
lfingers 7.12502
lthumb -10.7724 77.7837
rfemur -6.35123 -11.3067 24.236
rtibia 23.7258
rfoot -22.2139 -18.6255
rtoes 16.7632
lfemur -9.7304 5.59973 -22.2947
ltibia 24.5867
lfoot -21.7437 10.4051
ltoes 17.1171
515
root 11.7439 17.7858 -23.5734 -178.308 -32.6843 -177.855
lowerback 1.17802 -1.69188 4.03504
upperback -4.63494 -2.20858 4.03136
thorax -5.45882 -1.2968 2.07385
lowerneck 16.5378 16.8395 18.852
upperneck -0.502046 25.3243 -14.2804
head 1.47473 13.1721 -7.06385
rclavicle 7.55382e-014 2.06736e-014
rhumerus -32.4474 -9.8097 -77.2731
rradius 20.0295
rwrist 24.7293
rhand -23.0095 7.98954
rfingers 7.12502
rthumb 3.43394 -21.9626
lclavicle 7.55382e-014 2.06736e-014
lhumerus -37.8136 -7.32363 88.7666
lradius 30.8766
lwrist 43.8404
lhand -37.6836 48.0327
lfingers 7.12502
lthumb -10.7341 77.7385
rfemur -6.3798 -10.5748 24.3151
rtibia 23.5313
rfoot -22.2969 -18.8379
rtoes 18.7797
lfemur -9.75309 5.6126 -22.1546
ltibia 24.753
lfoot -21.7349 10.5515
ltoes 16.493
516
root 11.7382 17.7838 -23.5734 -178.329 -32.6773 -177.841
lowerback 1.26463 -1.64921 4.07673
upperback -4.67449 -2.14321 4.01015
thorax -5.55297 -1.26768 2.0301
lowerneck 16.7274 16.7969 18.9043
upperneck -0.560669 25.3003 -14.2763
head 1.43126 13.1649 -7.09391
rclavicle -3.40916e-014 1.90833e-014
rhumerus -32.5494 -9.86859 -77.3446
rradius 20.0094
rwrist 24.6859
rhand -23.0441 8.32953
rfingers 7.12502
rthumb 3.40056 -21.6231
lclavicle -3.40916e-014 1.90833e-014
lhumerus -38.0542 -7.64993 88.8881
lradius 31.4038
lwrist 44.3196
lhand -37.6679 48.3604
lfingers 7.12502
lthumb -10.7189 78.0669
rfemur -6.12481 -11.2698 24.3632
rtibia 23.4432
rfoot -21.8923 -18.8838
rtoes 16.4847
lfemur -9.76468 5.51683 -22.1577
ltibia 24.84
lfoot -21.7143 10.6495
ltoes 16.2163
